<svg  viewBox="0 0 207 196" xmlns="http://www.w3.org/2000/svg" fill="currentColor">
  <style>    
    :root { color: var(--joy-palette-primary-500, #0B6BCB) } /* Primary 500 */
    @media (prefers-color-scheme: dark) {
      :root { color: var(--joy-palette-primary-400, #4393E4) } /* Primary 400 */    
    }
  </style>
  <path d="M199.93 0.98392L42.3925 91.9389C39.4625 94.3189 35.55 99.0414 41.76 104.051L78.815 125.444L96.6475 115.144L78.255 104.524C70.5425 98.8814 76.1175 93.5139 79.085 91.3464L183.353 31.1489C186.833 30.0689 188.415 31.7614 189.135 33.5339V69.8489L78.8175 133.541L30.9625 105.911C18.2175 98.6839 29.19 91.5039 30.915 90.4639L96.4725 52.6139L7.10251 1.02392C1.47751 -1.20858 0.255 3.19642 0 5.19142V191.169C0.255 193.159 1.47002 197.546 7.05502 195.356L78.965 153.839C79.0225 153.876 79.0825 153.911 79.1425 153.949L189.132 90.4464V162.359C188.212 164.634 185.88 166.804 179.915 163.109L179.897 163.214L128.515 133.546L110.678 143.844L199.978 195.399C205.735 197.601 206.783 192.754 206.968 190.931V5.43142C206.783 3.60392 205.728 -1.26108 199.93 0.98392Z"/>
</svg>
