<svg version="1.0"
  xmlns="http://www.w3.org/2000/svg" viewBox="0 0 1280.000000 1280.000000">
  <style>
    :root { color: #096BDE } /* Primary 500 */
    @media (prefers-color-scheme: dark) {
      :root { color: #3990FF } /* Primary 400 */
    }
  </style>
  <g transform="translate(0.000000,1280.000000) scale(0.100000,-0.100000)" fill="currentColor" stroke="none">
    <path d="M6441 10989 c-264 -24 -558 -98 -714 -182 -68 -36 -151 -107 -172
-147 -11 -20 -27 -31 -62 -39 -69 -18 -225 -93 -298 -145 -139 -100 -250 -257
-289 -411 -64 -255 -32 -776 90 -1440 19 -104 44 -244 55 -310 65 -375 247
-777 479 -1053 l60 -72 0 -161 c0 -144 -2 -162 -19 -177 -10 -10 -47 -51 -81
-92 -104 -124 -296 -258 -569 -397 -155 -78 -324 -147 -661 -268 -637 -229
-891 -355 -1071 -535 -88 -88 -140 -183 -184 -335 -116 -403 15 -766 490
-1358 432 -537 888 -910 1471 -1200 555 -277 936 -377 1504 -394 538 -16 974
66 1450 272 295 128 490 233 740 400 235 157 403 296 630 524 410 410 720 843
829 1153 86 247 79 485 -20 725 -39 94 -76 148 -152 223 -167 166 -438 300
-1047 520 -374 135 -515 192 -710 291 -245 123 -397 216 -503 307 -124 106
-188 153 -198 146 -5 -3 -9 66 -9 157 l0 161 52 57 c237 258 444 680 513 1046
9 50 23 104 30 120 51 116 117 377 144 570 92 644 -49 1166 -426 1574 -326
355 -800 519 -1352 470z m1646 -2206 c-2 -21 -4 -6 -4 32 0 39 2 55 4 38 2
-18 2 -50 0 -70z"/>
  </g>
</svg>
