<svg viewBox="0 0 822 253" xmlns="http://www.w3.org/2000/svg">
  <path d="M215.84 247H188.3L185.24 210.62C174.02 235.78 145.46 252.44 112.82 252.44C43.8 252.44 0.960001 197.36 0.960001 126.64C0.960001 55.58 43.8 0.159996 114.52 0.159996C167.9 0.159996 203.6 32.12 214.82 79.38L170.28 81.76C163.48 55.58 144.1 37.9 114.18 37.9C66.24 37.9 45.16 77.68 45.16 126.64C45.16 175.26 66.58 214.7 114.18 214.7C149.54 214.7 169.6 190.22 173 157.24H113.84V122.56H215.84V247ZM226.587 156.9C226.587 99.78 261.607 62.72 314.987 62.72C360.547 62.72 397.607 93.32 398.967 157.24V168.46H270.787C272.827 199.06 288.807 217.08 314.987 217.08C331.647 217.08 346.607 207.56 353.407 191.92L396.587 194.98C385.707 229.66 353.407 251.08 314.987 251.08C261.607 251.08 226.587 214.02 226.587 156.9ZM271.127 139.56H355.447C351.707 107.94 334.367 96.38 314.987 96.38C290.507 96.38 274.867 112.7 271.127 139.56ZM417.614 66.8H459.774V247H417.614V66.8ZM416.934 41.3V5.59999H460.794V41.3H416.934ZM595.567 124.26C592.167 105.9 575.167 95.02 558.167 95.02C540.827 95.02 527.227 103.86 527.567 118.48C527.907 133.78 546.947 139.9 564.627 143.3C612.567 151.46 640.447 164.04 640.447 199.06C640.447 234.76 605.427 251.08 564.287 251.08C515.667 251.08 482.687 227.96 479.627 189.88L522.807 187.5C526.207 206.54 540.487 218.44 563.607 218.44C578.567 218.44 596.927 213 596.927 197.7C596.587 180.02 576.187 177.3 557.487 173.22C514.987 164.72 484.047 153.5 484.047 119.5C484.047 84.14 513.287 62.38 560.547 62.38C602.027 62.38 632.287 85.5 638.067 122.22L595.567 124.26ZM670.128 26H712.288V66.8H759.888V99.78H712.288V192.26C712.288 206.54 719.088 213.68 732.688 213.68H759.888V247H726.228C689.508 247 670.128 228.3 670.128 192.26V99.78H641.908V66.8H670.128V26ZM773.846 201.78H821.446V247H773.846V201.78Z" fill="#171717"></path>
</svg>